<svg aria-hidden="true" style="position: absolute; width: 0; height: 0; overflow: hidden;" version="1.1" xmlns="http://www.w3.org/2000/svg" xmlns:xlink="http://www.w3.org/1999/xlink">
<defs>
<symbol id="icon-camera-header" viewBox="0 0 32 32">
<path d="M21 17c0 1.326-0.527 2.598-1.464 3.536s-2.209 1.464-3.536 1.464-2.598-0.527-3.536-1.464c-0.938-0.938-1.464-2.21-1.464-3.536s0.527-2.598 1.464-3.536c0.938-0.938 2.209-1.464 3.536-1.464s2.598 0.527 3.536 1.464c0.938 0.938 1.464 2.209 1.464 3.536z"></path>
<path d="M4 8c-1.061 0-2.078 0.421-2.828 1.172s-1.172 1.768-1.172 2.828v12c0 1.061 0.421 2.078 1.172 2.828s1.768 1.172 2.828 1.172h24c1.061 0 2.078-0.421 2.828-1.172s1.172-1.768 1.172-2.828v-12c0-1.061-0.421-2.078-1.172-2.828s-1.768-1.172-2.828-1.172h-2.344c-1.061-0-2.078-0.422-2.828-1.172l-1.656-1.656c-0.75-0.75-1.767-1.172-2.828-1.172h-4.688c-1.061 0-2.078 0.422-2.828 1.172l-1.656 1.656c-0.75 0.75-1.767 1.172-2.828 1.172h-2.344zM5 12c-0.265 0-0.52-0.105-0.707-0.293s-0.293-0.442-0.293-0.707c0-0.265 0.105-0.52 0.293-0.707s0.442-0.293 0.707-0.293c0.265 0 0.52 0.105 0.707 0.293s0.293 0.442 0.293 0.707c0 0.265-0.105 0.52-0.293 0.707s-0.442 0.293-0.707 0.293zM23 17c0 1.857-0.737 3.637-2.050 4.95s-3.093 2.050-4.95 2.050c-1.857 0-3.637-0.737-4.95-2.050s-2.050-3.093-2.050-4.95c0-1.857 0.738-3.637 2.050-4.95s3.093-2.050 4.95-2.050c1.857 0 3.637 0.738 4.95 2.050s2.050 3.093 2.050 4.95z"></path>
</symbol>
<symbol id="icon-Rectangle_black" viewBox="0 0 32 32">
<path d="M6.4 0h19.2c3.535 0 6.4 2.865 6.4 6.4v19.2c0 3.535-2.865 6.4-6.4 6.4h-19.2c-3.535 0-6.4-2.865-6.4-6.4v-19.2c0-3.535 2.865-6.4 6.4-6.4z"></path>
</symbol>
<symbol id="icon-filled_star" >
<svg xmlns="http://www.w3.org/2000/svg" width="20" height="20" viewBox="0 0 20 20" fill="none">
  <path d="M10 1.66667L12.575 6.88334L18.3334 7.72501L14.1667 11.7833L15.15 17.5167L10 14.8083L4.85002 17.5167L5.83335 11.7833L1.66669 7.72501L7.42502 6.88334L10 1.66667Z" stroke="#121212" stroke-width="1.5" stroke-linecap="round" stroke-linejoin="round"/>
</svg>
</symbol>
<symbol id="icon-empty_star" viewBox="0 0 34 32">
<path  style="fill: var(--color2, #fff)" opacity="0.2" stroke-linejoin="round" stroke-linecap="round" stroke-miterlimit="4" stroke-width="1.8824" stroke="#000" d="M16.941 1.882l4.653 9.293 10.406 1.499-7.529 7.229 1.777 10.213-9.306-4.825-9.306 4.825 1.777-10.213-7.529-7.229 10.406-1.499 4.653-9.293z"></path>
</symbol>
<symbol id="icon-arrow_2" viewBox="0 0 32 32">
<path d="M32 16c0 8.837-7.163 16-16 16s-16-7.163-16-16c0-8.837 7.163-16 16-16s16 7.163 16 16z"></path>
<path  stroke="#777" style="stroke: var(--color3, #777)" stroke-linejoin="round" stroke-linecap="round" stroke-miterlimit="4" stroke-width="1.3" d="M11 21l10-10"></path>
<path  stroke="#777" style="stroke: var(--color3, #777)" stroke-linejoin="round" stroke-linecap="round" stroke-miterlimit="4" stroke-width="1.3" d="M14.333 11h6.667v6.667"></path>
</symbol>
<symbol id="icon-Star_circle" viewBox="0 0 32 32">
<path  style="fill: var(--color1, #bea69e)" d="M16 0c8.837 0 16 7.163 16 16s-7.163 16-16 16c-8.837 0-16-7.163-16-16s7.163-16 16-16z"></path>
<path  stroke="#121212" style="stroke: var(--color4, #121212)" stroke-linejoin="round" stroke-linecap="round" stroke-miterlimit="4" stroke-width="1.0909" d="M16 9.939l1.873 3.794 4.188 0.612-3.030 2.952 0.715 4.17-3.745-1.97-3.745 1.97 0.715-4.17-3.030-2.951 4.188-0.612 1.873-3.794z"></path>
</symbol>
<symbol id="icon-Arrow" viewBox="0 0 58 32">
<path d="M5 15L15 5" stroke="#777777" stroke-width="1.3" stroke-linecap="round" stroke-linejoin="round"/>
<path d="M8.33325 5H14.9999V11.6667" stroke="#777777" stroke-width="1.3" stroke-linecap="round" stroke-linejoin="round"/>
</symbol>
<symbol id="icon-camera_symbol" viewBox="0 0 32 32">

</symbol>
<symbol id="icon-Menu_burger" viewBox="0 0 47 32">
<path  stroke="#fff" style="stroke: var(--color2, #fff)" stroke-linejoin="miter" stroke-linecap="round" stroke-miterlimit="4" stroke-width="2.9091" d="M8.538 5.333h36.553"></path>
<path  stroke="#fff" style="stroke: var(--color2, #fff)" stroke-linejoin="miter" stroke-linecap="round" stroke-miterlimit="4" stroke-width="2.9091" d="M8.538 24.727h36.553"></path>
<path  stroke="#fff" style="stroke: var(--color2, #fff)" stroke-linejoin="miter" stroke-linecap="round" stroke-miterlimit="4" stroke-width="2.9091" d="M19.668 15.030h25.423"></path>
</symbol>
<symbol >
<svg  id="logo" width="124" height="17" viewBox="0 0 124 17" fill="none">
  <path d="M10.344 9.216H3.336V15.936H0V0H11.352V2.784H3.336V6.408H10.344V9.216Z" fill="white"/>
  <path d="M17.1066 13.632C19.0026 13.632 19.9626 12.432 19.9626 10.032C19.9626 7.632 19.0026 6.456 17.1066 6.456C15.2106 6.456 14.2506 7.632 14.2506 10.032C14.2506 12.432 15.2106 13.632 17.1066 13.632ZM17.1066 16.248C13.2906 16.248 11.0346 13.704 11.0346 10.032C11.0346 6.288 13.3626 3.816 17.1066 3.816C20.8026 3.816 23.1066 6.264 23.1066 10.032C23.1066 13.776 20.7786 16.248 17.1066 16.248Z" fill="white"/>
  <path d="M31.7241 11.664H34.8681C34.5321 14.4 32.3001 16.248 29.4441 16.248C26.2281 16.248 24.0201 14.112 24.0201 9.888C24.0201 5.664 26.2281 3.816 29.5401 3.816C32.6121 3.816 34.7001 5.568 34.8921 8.352H31.7481C31.5801 7.128 30.6921 6.408 29.5161 6.408C28.1961 6.408 27.1161 7.248 27.1161 9.816C27.1161 12.384 28.1961 13.632 29.4201 13.632C30.6441 13.632 31.6041 12.936 31.7241 11.664Z" fill="white"/>
  <path d="M46.4228 15.936H43.4707V14.28C42.6547 15.624 41.4308 16.248 39.7988 16.248C37.4468 16.248 35.7907 14.496 35.7907 11.904V4.128H38.9108V11.424C38.9108 12.912 39.5827 13.632 40.9027 13.632C42.4867 13.632 43.3268 12.504 43.3268 10.944V4.128H46.4228V15.936Z" fill="white"/>
  <path d="M57.8948 7.704H54.8948C54.7268 6.552 54.1028 6.144 52.6868 6.144C51.5108 6.144 50.8388 6.432 50.8388 7.128C50.8388 7.824 51.4868 8.112 52.7588 8.472C54.1028 8.856 55.3748 9.12 56.2868 9.48C57.5348 9.984 58.2308 10.8 58.2308 12.336C58.2308 14.784 56.4307 16.248 53.0707 16.248C49.4467 16.248 47.4308 14.544 47.3828 12.144H50.5987C50.5987 13.248 51.5348 13.896 53.0468 13.896C54.1508 13.896 55.1348 13.56 55.1348 12.672C55.1348 11.832 54.2467 11.568 53.2387 11.328C51.2467 10.848 50.1427 10.512 49.3027 9.984C48.1987 9.288 47.8148 8.376 47.8148 7.32C47.8148 5.328 49.1828 3.816 52.7828 3.816C56.1908 3.816 57.7268 5.16 57.8948 7.704Z" fill="white"/>
  <path d="M62.3751 15.936H59.0391V12.696H62.3751V15.936Z" fill="white"/>
  <path d="M73.8596 9.216H66.8516V15.936H63.5156V0H74.8676V2.784H66.8516V6.408H73.8596V9.216Z" fill="white"/>
  <path d="M78.3561 15.936H75.2361V4.128H78.1641V5.544C79.1961 3.96 80.3961 3.816 81.6681 3.816H82.0761V7.008C81.7881 6.96 81.5001 6.936 81.2121 6.936C79.2921 6.936 78.3561 7.896 78.3561 9.792V15.936Z" fill="white"/>
  <path d="M89.5131 11.448L89.5371 10.152C89.2251 10.464 88.6731 10.632 87.5211 10.848C85.7451 11.184 85.1691 11.688 85.1691 12.696C85.1691 13.584 85.6971 14.016 86.6811 14.016C88.2891 14.016 89.4891 12.84 89.5131 11.448ZM92.6571 15.936H89.7531C89.6571 15.648 89.5851 15.24 89.5611 14.88C88.8171 15.696 87.5691 16.248 85.9851 16.248C83.2971 16.248 82.0491 14.928 82.0491 13.008C82.0491 9.6 84.3291 9.216 87.4731 8.784C89.0331 8.568 89.4651 8.256 89.4651 7.44C89.4651 6.672 88.6971 6.216 87.4731 6.216C86.0571 6.216 85.4811 6.912 85.3371 7.968H82.4331C82.4811 5.52 83.8251 3.816 87.6171 3.816C91.3611 3.816 92.6571 5.496 92.6571 8.472V15.936Z" fill="white"/>
  <path d="M110.929 15.936H107.881V8.784C107.881 7.368 107.137 6.36 106.033 6.36C104.881 6.36 104.041 7.44 104.041 8.88V15.936H100.921V8.832C100.921 6.936 100.417 6.456 99.0489 6.456C97.8009 6.456 97.1529 7.224 97.1529 8.76V15.936H94.0329V4.128H96.9609V5.856C97.7529 4.296 98.8569 3.816 100.417 3.816C102.025 3.816 102.793 4.32 103.705 5.688C104.353 4.392 105.409 3.816 106.897 3.816C109.273 3.816 110.929 5.544 110.929 7.752V15.936Z" fill="white"/>
  <path d="M115.079 8.88H119.903C119.855 7.128 118.703 6.288 117.479 6.288C116.231 6.288 115.199 7.248 115.079 8.88ZM123.119 10.848H114.983C115.079 12.624 116.087 13.776 117.623 13.776C118.631 13.776 119.519 13.272 119.735 12.456H122.951C122.231 14.88 120.287 16.248 117.767 16.248C113.831 16.248 111.863 14.088 111.863 9.816C111.863 6.168 113.951 3.816 117.575 3.816C121.199 3.816 123.119 6.168 123.119 10.848Z" fill="white"/>
</svg>
</symbol>
<symbol id="icon-close_button" viewBox="0 0 32 32">
<path stroke-linejoin="round" stroke-linecap="round" stroke-miterlimit="4" stroke-width="2.4" d="M24 8l-16 16"></path>
<path stroke-linejoin="round" stroke-linecap="round" stroke-miterlimit="4" stroke-width="2.4" d="M8 8l16 16"></path>
</symbol>

















<symbol id="our-courses-icon" viewBox="0 0 32 32">
    <path fill="none"   stroke-linejoin="round" stroke-linecap="round" stroke-miterlimit="4" stroke-width="2.0800" d="M8 24l16-16"></path>
    <path fill="none"   stroke-linejoin="round" stroke-linecap="round" stroke-miterlimit="4" stroke-width="2.0800" d="M13.333 8h10.667v10.667"></path>
=======
<symbol id="icon-camera-header" viewBox="0 0 32 32">
<path d="M21 17c0 1.326-0.527 2.598-1.464 3.536s-2.209 1.464-3.536 1.464-2.598-0.527-3.536-1.464c-0.938-0.938-1.464-2.21-1.464-3.536s0.527-2.598 1.464-3.536c0.938-0.938 2.209-1.464 3.536-1.464s2.598 0.527 3.536 1.464c0.938 0.938 1.464 2.209 1.464 3.536z"></path>
<path d="M4 8c-1.061 0-2.078 0.421-2.828 1.172s-1.172 1.768-1.172 2.828v12c0 1.061 0.421 2.078 1.172 2.828s1.768 1.172 2.828 1.172h24c1.061 0 2.078-0.421 2.828-1.172s1.172-1.768 1.172-2.828v-12c0-1.061-0.421-2.078-1.172-2.828s-1.768-1.172-2.828-1.172h-2.344c-1.061-0-2.078-0.422-2.828-1.172l-1.656-1.656c-0.75-0.75-1.767-1.172-2.828-1.172h-4.688c-1.061 0-2.078 0.422-2.828 1.172l-1.656 1.656c-0.75 0.75-1.767 1.172-2.828 1.172h-2.344zM5 12c-0.265 0-0.52-0.105-0.707-0.293s-0.293-0.442-0.293-0.707c0-0.265 0.105-0.52 0.293-0.707s0.442-0.293 0.707-0.293c0.265 0 0.52 0.105 0.707 0.293s0.293 0.442 0.293 0.707c0 0.265-0.105 0.52-0.293 0.707s-0.442 0.293-0.707 0.293zM23 17c0 1.857-0.737 3.637-2.050 4.95s-3.093 2.050-4.95 2.050c-1.857 0-3.637-0.737-4.95-2.050s-2.050-3.093-2.050-4.95c0-1.857 0.738-3.637 2.050-4.95s3.093-2.050 4.95-2.050c1.857 0 3.637 0.738 4.95 2.050s2.050 3.093 2.050 4.95z"></path>

</symbol>
</defs>
</svg>
