<svg aria-hidden="true" style="position: absolute; width: 0; height: 0; overflow: hidden;" version="1.1" xmlns="http://www.w3.org/2000/svg" xmlns:xlink="http://www.w3.org/1999/xlink">
<defs>
<symbol id="icon-Rectangle_black" viewBox="0 0 32 32">
<path d="M6.4 0h19.2c3.535 0 6.4 2.865 6.4 6.4v19.2c0 3.535-2.865 6.4-6.4 6.4h-19.2c-3.535 0-6.4-2.865-6.4-6.4v-19.2c0-3.535 2.865-6.4 6.4-6.4z"></path>
</symbol>
<symbol id="icon-filled_star" viewBox="0 0 34 32">
<path  style="fill: var(--color1, #bea69e); stroke: var(--color1, #bea69e)" stroke="#bea69e" stroke-linejoin="round" stroke-linecap="round" stroke-miterlimit="4" stroke-width="2.8235" d="M16.941 1.882l4.653 9.293 10.406 1.499-7.529 7.229 1.777 10.213-9.306-4.825-9.306 4.825 1.777-10.213-7.529-7.229 10.406-1.499 4.653-9.293z"></path>
</symbol>
<symbol id="icon-empty_star" viewBox="0 0 34 32">
<path  style="fill: var(--color2, #fff)" opacity="0.2" stroke-linejoin="round" stroke-linecap="round" stroke-miterlimit="4" stroke-width="1.8824" stroke="#000" d="M16.941 1.882l4.653 9.293 10.406 1.499-7.529 7.229 1.777 10.213-9.306-4.825-9.306 4.825 1.777-10.213-7.529-7.229 10.406-1.499 4.653-9.293z"></path>
</symbol>
<symbol id="icon-arrow_2" viewBox="0 0 32 32">
<path d="M32 16c0 8.837-7.163 16-16 16s-16-7.163-16-16c0-8.837 7.163-16 16-16s16 7.163 16 16z"></path>
<path  stroke="#777" style="stroke: var(--color3, #777)" stroke-linejoin="round" stroke-linecap="round" stroke-miterlimit="4" stroke-width="1.3" d="M11 21l10-10"></path>
<path  stroke="#777" style="stroke: var(--color3, #777)" stroke-linejoin="round" stroke-linecap="round" stroke-miterlimit="4" stroke-width="1.3" d="M14.333 11h6.667v6.667"></path>
</symbol>
<symbol id="icon-Star_circle" viewBox="0 0 32 32">
<path  style="fill: var(--color1, #bea69e)" d="M16 0c8.837 0 16 7.163 16 16s-7.163 16-16 16c-8.837 0-16-7.163-16-16s7.163-16 16-16z"></path>
<path  stroke="#121212" style="stroke: var(--color4, #121212)" stroke-linejoin="round" stroke-linecap="round" stroke-miterlimit="4" stroke-width="1.0909" d="M16 9.939l1.873 3.794 4.188 0.612-3.030 2.952 0.715 4.17-3.745-1.97-3.745 1.97 0.715-4.17-3.030-2.951 4.188-0.612 1.873-3.794z"></path>
</symbol>
<symbol id="icon-Arrow" viewBox="0 0 58 32">
<path d="M5 15L15 5" stroke="#777777" stroke-width="1.3" stroke-linecap="round" stroke-linejoin="round"/>
<path d="M8.33325 5H14.9999V11.6667" stroke="#777777" stroke-width="1.3" stroke-linecap="round" stroke-linejoin="round"/>
</symbol>
<symbol id="icon-camera_symbol" viewBox="0 0 32 32">

</symbol>
<symbol id="icon-Menu_burger" viewBox="0 0 47 32">
<path  stroke="#fff" style="stroke: var(--color2, #fff)" stroke-linejoin="miter" stroke-linecap="round" stroke-miterlimit="4" stroke-width="2.9091" d="M8.538 5.333h36.553"></path>
<path  stroke="#fff" style="stroke: var(--color2, #fff)" stroke-linejoin="miter" stroke-linecap="round" stroke-miterlimit="4" stroke-width="2.9091" d="M8.538 24.727h36.553"></path>
<path  stroke="#fff" style="stroke: var(--color2, #fff)" stroke-linejoin="miter" stroke-linecap="round" stroke-miterlimit="4" stroke-width="2.9091" d="M19.668 15.030h25.423"></path>
</symbol>
<symbol id="icon-Logo_Focus_Frame" viewBox="0 0 233 32">

<path style="fill: var(--color2, #fff)" d="M216.619 16.715h9.080c-0.090-3.298-2.259-4.879-4.563-4.879-2.349 0-4.292 1.807-4.518 4.879zM231.753 20.42h-15.315c0.181 3.343 2.078 5.512 4.969 5.512 1.897 0 3.569-0.949 3.976-2.485h6.054c-1.355 4.563-5.015 7.138-9.758 7.138-7.409 0-11.113-4.066-11.113-12.107 0-6.867 3.93-11.294 10.752-11.294s10.436 4.427 10.436 13.237z"></path>
</symbol>
<symbol id="icon-close_button" viewBox="0 0 32 32">
<path stroke-linejoin="round" stroke-linecap="round" stroke-miterlimit="4" stroke-width="2.4" d="M24 8l-16 16"></path>
<path stroke-linejoin="round" stroke-linecap="round" stroke-miterlimit="4" stroke-width="2.4" d="M8 8l16 16"></path>
</symbol>
















<symbol id="our-courses-icon" viewBox="0 0 32 32">
    <path fill="none"   stroke-linejoin="round" stroke-linecap="round" stroke-miterlimit="4" stroke-width="2.0800" d="M8 24l16-16"></path>
    <path fill="none"   stroke-linejoin="round" stroke-linecap="round" stroke-miterlimit="4" stroke-width="2.0800" d="M13.333 8h10.667v10.667"></path>
</symbol>
</defs>
</svg>
